<?xml version="1.0" encoding="UTF-8" standalone="no"?>
<!-- Created with Inkscape (http://www.inkscape.org/) -->

<svg
   xmlns:dc="http://purl.org/dc/elements/1.1/"
   xmlns:cc="http://creativecommons.org/ns#"
   xmlns:rdf="http://www.w3.org/1999/02/22-rdf-syntax-ns#"
   xmlns:svg="http://www.w3.org/2000/svg"
   xmlns="http://www.w3.org/2000/svg"
   xmlns:xlink="http://www.w3.org/1999/xlink"
   xmlns:sodipodi="http://sodipodi.sourceforge.net/DTD/sodipodi-0.dtd"
   xmlns:inkscape="http://www.inkscape.org/namespaces/inkscape"
   width="400.75885mm"
   height="400.75891mm"
   viewBox="0 0 400.75887 400.75889"
   version="1.1"
   id="svg8"
   sodipodi:docname="devek_og.svg"
   inkscape:version="0.92.4 (5da689c313, 2019-01-14)">
  <defs
     id="defs2">
    <linearGradient
       inkscape:collect="always"
       id="linearGradient839">
      <stop
         style="stop-color:#5500aa;stop-opacity:1;"
         offset="0"
         id="stop835" />
      <stop
         style="stop-color:#5050ff;stop-opacity:1"
         offset="1"
         id="stop837" />
    </linearGradient>
    <linearGradient
       inkscape:collect="always"
       xlink:href="#linearGradient839"
       id="linearGradient841"
       x1="208.90895"
       y1="-4.2402587"
       x2="585.67554"
       y2="474.71548"
       gradientUnits="userSpaceOnUse"
       gradientTransform="matrix(0.51542855,0,0,0.97619043,160.86809,8.5311609)" />
  </defs>
  <sodipodi:namedview
     id="base"
     pagecolor="#ffffff"
     bordercolor="#666666"
     borderopacity="1.0"
     inkscape:pageopacity="0.0"
     inkscape:pageshadow="2"
     inkscape:zoom="0.29775281"
     inkscape:cx="956.39769"
     inkscape:cy="622.97672"
     inkscape:document-units="mm"
     inkscape:current-layer="layer1"
     showgrid="false"
     inkscape:window-width="1920"
     inkscape:window-height="1017"
     inkscape:window-x="-8"
     inkscape:window-y="-8"
     inkscape:window-maximized="1" />
  <metadata
     id="metadata5">
    <rdf:RDF>
      <cc:Work
         rdf:about="">
        <dc:format>image/svg+xml</dc:format>
        <dc:type
           rdf:resource="http://purl.org/dc/dcmitype/StillImage" />
        <dc:title />
      </cc:Work>
    </rdf:RDF>
  </metadata>
  <g
     inkscape:label="Layer 1"
     inkscape:groupmode="layer"
     id="layer1"
     transform="translate(-131.60069,42.450089)">
    <rect
       style="fill:url(#linearGradient841);fill-opacity:1;stroke:none;stroke-width:5.67468166;stroke-linecap:square;stroke-miterlimit:4;stroke-dasharray:none;stroke-opacity:1"
       id="rect6618"
       width="400.75885"
       height="400.75891"
       x="131.60069"
       y="-42.450089" />
    <flowRoot
       xml:space="preserve"
       id="flowRoot4638"
       style="font-style:normal;font-weight:normal;font-size:293.33334351px;line-height:1.25;font-family:sans-serif;letter-spacing:0px;word-spacing:0px;fill:#000000;fill-opacity:1;stroke:none"
       transform="matrix(0.26458333,0,0,0.26458333,-26.458334,-5.074996)"><flowRegion
         id="flowRegion4640"
         style="font-size:293.33334351px"><rect
           id="rect4642"
           width="1306"
           height="552"
           x="662"
           y="215.70081"
           style="font-size:293.33334351px" /></flowRegion><flowPara
         id="flowPara4644"
         style="font-size:384px">DEVEKDE</flowPara></flowRoot>    <flowRoot
       xml:space="preserve"
       id="flowRoot7163"
       style="font-style:normal;font-weight:normal;font-size:40px;line-height:1.25;font-family:sans-serif;letter-spacing:0px;word-spacing:0px;fill:#000000;fill-opacity:1;stroke:none"
       transform="matrix(0.14413014,0,0,0.14413014,228.09647,85.282455)"><flowRegion
         id="flowRegion7165"><rect
           id="rect7167"
           width="2636.415"
           height="476.90567"
           x="-120.90566"
           y="757.46729" /></flowRegion><flowPara
         id="flowPara7169"
         style="font-style:normal;font-variant:normal;font-weight:normal;font-stretch:normal;font-size:240px;font-family:Consolas;-inkscape-font-specification:Consolas;fill:#ffffff;fill-opacity:1">Developer Kit</flowPara></flowRoot>    <g
       aria-label="01"
       transform="matrix(2.4121895,0,0,2.4121895,-381.4225,-767.68343)"
       style="font-style:normal;font-variant:normal;font-weight:normal;font-stretch:normal;font-size:5.33333349px;line-height:1.25;font-family:'Courier New';-inkscape-font-specification:'Courier New';letter-spacing:0px;word-spacing:0px;fill:#ffffff;fill-opacity:1;stroke:none"
       id="flowRoot828">
      <path
         d="m 252.72135,394.48101 -3.33621,-0.005 v -36.21599 c -0.67708,0.64583 -1.5677,1.29167 -2.67187,1.9375 -1.09375,0.64583 -2.07813,1.13021 -2.95313,1.45312 l -1.25722,-2.71875 c 1.57292,-0.73958 3.37141,-1.63541 4.54849,-2.6875 1.17709,-1.05208 1.90455,-2.07291 2.39413,-3.0625 h 3.27581 z"
         style="font-style:normal;font-variant:normal;font-weight:normal;font-stretch:normal;font-family:Arial;-inkscape-font-specification:Arial;fill:#ffffff;fill-opacity:1"
         id="path840"
         inkscape:connector-curvature="0"
         sodipodi:nodetypes="cccccccccc" />
    </g>
    <g
       transform="matrix(9.1169374,0,0,9.1169374,-377.09128,-794.75371)"
       aria-label=" evek"
       style="font-style:normal;font-weight:normal;font-size:10.58333302px;line-height:1.25;font-family:sans-serif;letter-spacing:0px;word-spacing:0px;fill:#ffffff;fill-opacity:1;stroke:none;stroke-width:0.26458332"
       id="text845">
      <path
         d="m 73.912081,103.8925 q 0,0.22945 -0.0062,0.38448 -0.0062,0.15502 -0.0186,0.29145 H 69.51545 q 0,0.95498 0.533301,1.46968 0.533301,0.50849 1.53789,0.50849 0.272852,0 0.545704,-0.0186 0.272851,-0.0248 0.527099,-0.062 0.254248,-0.0372 0.483692,-0.0806 0.235644,-0.0496 0.434082,-0.10542 v 0.88677 q -0.440284,0.12402 -0.998389,0.19844 -0.551904,0.0806 -1.147217,0.0806 -0.799951,0 -1.37666,-0.21704 -0.576709,-0.21704 -0.948779,-0.62632 -0.365869,-0.41547 -0.545703,-1.01079 -0.173633,-0.60151 -0.173633,-1.35805 0,-0.65733 0.186035,-1.24024 0.192236,-0.58911 0.551904,-1.02939 0.365869,-0.44649 0.892969,-0.70694 0.5271,-0.26044 1.196826,-0.26044 0.651123,0 1.153418,0.20463 0.502295,0.20464 0.843359,0.58291 0.347266,0.37207 0.520899,0.91158 0.179834,0.5333 0.179834,1.19682 z m -1.122412,-0.15503 q 0.0186,-0.41548 -0.08062,-0.75654 -0.09922,-0.34727 -0.310059,-0.59531 -0.204639,-0.24805 -0.514697,-0.38448 -0.310059,-0.14262 -0.719336,-0.14262 -0.353467,0 -0.644922,0.13642 -0.291455,0.13643 -0.502295,0.38448 -0.21084,0.24804 -0.341064,0.59531 -0.130225,0.34726 -0.161231,0.76274 z"
         style="font-style:normal;font-variant:normal;font-weight:normal;font-stretch:normal;font-size:12.69999981px;font-family:Consolas;-inkscape-font-specification:Consolas;fill:#ffffff;fill-opacity:1;stroke-width:0.26458332"
         id="path847"
         inkscape:connector-curvature="0" />
      <path
         d="m 75.065499,101.10818 h 1.227832 l 1.525488,4.11757 0.328662,1.00459 0.341065,-1.02939 1.513085,-4.09277 h 1.184424 l -2.443261,6.22597 h -1.240235 z"
         style="font-style:normal;font-variant:normal;font-weight:normal;font-stretch:normal;font-size:12.69999981px;font-family:Consolas;-inkscape-font-specification:Consolas;fill:#ffffff;fill-opacity:1;stroke-width:0.26458332"
         id="path849"
         inkscape:connector-curvature="0" />
      <path
         d="m 87.901923,103.8925 q 0,0.22945 -0.0062,0.38448 -0.0062,0.15502 -0.0186,0.29145 h -4.371827 q 0,0.95498 0.533301,1.46968 0.533301,0.50849 1.537891,0.50849 0.272851,0 0.545703,-0.0186 0.272852,-0.0248 0.5271,-0.062 0.254248,-0.0372 0.483691,-0.0806 0.235645,-0.0496 0.434082,-0.10542 v 0.88677 q -0.440283,0.12402 -0.998389,0.19844 -0.551904,0.0806 -1.147216,0.0806 -0.799952,0 -1.376661,-0.21704 -0.576709,-0.21704 -0.948779,-0.62632 -0.365869,-0.41547 -0.545703,-1.01079 -0.173633,-0.60151 -0.173633,-1.35805 0,-0.65733 0.186035,-1.24024 0.192237,-0.58911 0.551905,-1.02939 0.365869,-0.44649 0.892968,-0.70694 0.5271,-0.26044 1.196827,-0.26044 0.651123,0 1.153418,0.20463 0.502294,0.20464 0.843359,0.58291 0.347265,0.37207 0.520898,0.91158 0.179834,0.5333 0.179834,1.19682 z m -1.122412,-0.15503 q 0.0186,-0.41548 -0.08061,-0.75654 -0.09922,-0.34727 -0.310059,-0.59531 -0.204638,-0.24805 -0.514697,-0.38448 -0.310058,-0.14262 -0.719336,-0.14262 -0.353467,0 -0.644922,0.13642 -0.291455,0.13643 -0.502295,0.38448 -0.210839,0.24804 -0.341064,0.59531 -0.130225,0.34726 -0.161231,0.76274 z"
         style="font-style:normal;font-variant:normal;font-weight:normal;font-stretch:normal;font-size:12.69999981px;font-family:Consolas;-inkscape-font-specification:Consolas;fill:#ffffff;fill-opacity:1;stroke-width:0.26458332"
         id="path851"
         inkscape:connector-curvature="0" />
      <path
         d="m 95.23791,107.33415 h -1.48208 l -2.902148,-3.33623 v 3.33623 h -1.079004 v -8.762273 h 1.079004 v 5.382633 l 2.796728,-2.84633 h 1.42627 l -2.920752,2.87114 z"
         style="font-style:normal;font-variant:normal;font-weight:normal;font-stretch:normal;font-size:12.69999981px;font-family:Consolas;-inkscape-font-specification:Consolas;fill:#ffffff;fill-opacity:1;stroke-width:0.26458332"
         id="path853"
         inkscape:connector-curvature="0" />
    </g>
    <path
       d="m 224.47411,152.16388 c 0,1.39462 -5.65067,1.86131 -4.80544,6.27556 -0.0365,0.94222 -0.50509,-9.63761 -0.57985,-8.80843 l -29.37642,19.76616 c 1.12193,2.71083 3.76147,4.57069 3.76147,4.57069 4.29672,2.56286 6.46391,2.65703 12.5698,2.65703 1.65837,0 3.7095,-0.66553 6.15931,-1.82977 3.43235,-1.94883 5.38547,-4.11565 6.5271,-8.18928 1.01772,-5.37098 0.35829,-16.97483 0.35829,-16.97483 l 7.08158,22.75397 c -2.676,0.75396 -2.51627,5.75533 -9.81584,9.61982 -3.61833,2.07264 -5.46679,2.5407 -10.00932,2.81796 -4.85303,0.29629 -9.04573,-0.66007 -12.55092,-1.97875 -3.50518,-1.31913 -6.38851,-3.22256 -8.64996,-5.71012 -2.22372,-2.5252 -3.88209,-5.59698 -4.97512,-9.2153 -1.05538,-3.65598 -1.58306,-7.78304 -1.58306,-12.38117 0,-3.99522 0.56525,-7.76426 1.69611,-11.30719 1.16843,-3.58059 2.84558,-6.70889 5.03164,-9.38489 2.2238,-2.71374 4.93746,-4.86215 8.14115,-6.44512 3.20369,-1.58297 6.8408,-2.37442 10.91143,-2.37442 3.95748,0 7.46267,0.62178 10.51566,1.8656 3.05291,1.24383 5.61585,3.01525 7.68886,5.31436 2.11067,2.26145 1.97874,5.95509 3.03403,9.23427 1.09303,3.24134 -1.79029,-0.37653 -1.79029,3.65589 z m -7.01238,-9.66368 c 0.11305,-2.5253 1.13268,3.68972 0.5297,1.61679 -0.60264,-2.11066 -1.54533,-3.91982 -2.8268,-5.4274 -1.24374,-1.50767 -2.80794,-2.67609 -4.6924,-3.50527 -1.88456,-0.86703 -4.07063,-1.30027 -6.5582,-1.30027 -2.1484,0 -4.10827,0.41483 -5.87969,1.24374 -1.77151,0.82873 -4.22132,2.26146 -5.5028,3.76912 -1.28147,1.50758 -2.58182,3.58059 -3.37336,5.69125 -0.79135,2.11066 -2.99491,7.67956 -1.6003,17.32829 z"
       style="font-style:normal;font-variant:normal;font-weight:normal;font-stretch:normal;font-size:12.69999981px;line-height:1.25;font-family:Consolas;-inkscape-font-specification:Consolas;letter-spacing:0px;word-spacing:0px;fill:#ffffff;fill-opacity:1;stroke:none;stroke-width:2.41218948"
       id="path847-1"
       inkscape:connector-curvature="0"
       sodipodi:nodetypes="cccccscccccssccscccscccccccccsccccc" />
  </g>
</svg>
