<?xml version="1.0" encoding="UTF-8" standalone="no"?>
<!-- Created with Inkscape (http://www.inkscape.org/) -->

<svg
   xmlns:dc="http://purl.org/dc/elements/1.1/"
   xmlns:cc="http://creativecommons.org/ns#"
   xmlns:rdf="http://www.w3.org/1999/02/22-rdf-syntax-ns#"
   xmlns:svg="http://www.w3.org/2000/svg"
   xmlns="http://www.w3.org/2000/svg"
   xmlns:sodipodi="http://sodipodi.sourceforge.net/DTD/sodipodi-0.dtd"
   xmlns:inkscape="http://www.inkscape.org/namespaces/inkscape"
   width="34.287922mm"
   height="11.036454mm"
   viewBox="0 0 34.287922 11.036455"
   version="1.1"
   id="svg8"
   inkscape:version="0.92.4 (5da689c313, 2019-01-14)"
   sodipodi:docname="devek_text.svg">
  <defs
     id="defs2" />
  <sodipodi:namedview
     id="base"
     pagecolor="#ffffff"
     bordercolor="#666666"
     borderopacity="1.0"
     inkscape:pageopacity="0.0"
     inkscape:pageshadow="2"
     inkscape:zoom="4.6136812"
     inkscape:cx="48.929008"
     inkscape:cy="11.108687"
     inkscape:document-units="mm"
     inkscape:current-layer="layer1"
     showgrid="false"
     inkscape:window-width="1920"
     inkscape:window-height="1017"
     inkscape:window-x="-8"
     inkscape:window-y="-8"
     inkscape:window-maximized="1"
     showguides="true"
     inkscape:guide-bbox="true">
    <sodipodi:guide
       position="-3.7862322,6.1583542"
       orientation="1,0"
       id="guide871"
       inkscape:locked="false" />
  </sodipodi:namedview>
  <metadata
     id="metadata5">
    <rdf:RDF>
      <cc:Work
         rdf:about="">
        <dc:format>image/svg+xml</dc:format>
        <dc:type
           rdf:resource="http://purl.org/dc/dcmitype/StillImage" />
        <dc:title></dc:title>
      </cc:Work>
    </rdf:RDF>
  </metadata>
  <g
     inkscape:label="Layer 1"
     inkscape:groupmode="layer"
     id="layer1"
     transform="translate(-60.949989,-96.415274)">
    <g
       aria-label="01"
       transform="matrix(0.26458333,0,0,0.26458333,-0.47507732,2.9692332)"
       style="font-style:normal;font-variant:normal;font-weight:normal;font-stretch:normal;font-size:5.33333349px;line-height:1.25;font-family:'Courier New';-inkscape-font-specification:'Courier New';letter-spacing:0px;word-spacing:0px;fill:#000000;fill-opacity:1;stroke:none"
       id="flowRoot828">
      <path
         d="m 252.72135,394.48101 -3.33621,-0.005 v -36.21599 c -0.67708,0.64583 -1.5677,1.29167 -2.67187,1.9375 -1.09375,0.64583 -2.07813,1.13021 -2.95313,1.45312 l -1.25722,-2.71875 c 1.57292,-0.73958 3.37141,-1.63541 4.54849,-2.6875 1.17709,-1.05208 1.90455,-2.07291 2.39413,-3.0625 h 3.27581 z"
         style="font-style:normal;font-variant:normal;font-weight:normal;font-stretch:normal;font-family:Arial;-inkscape-font-specification:Arial;fill:#000000;fill-opacity:1"
         id="path840"
         inkscape:connector-curvature="0"
         sodipodi:nodetypes="cccccccccc" />
    </g>
    <g
       aria-label=" evek"
       style="font-style:normal;font-weight:normal;font-size:10.58333302px;line-height:1.25;font-family:sans-serif;letter-spacing:0px;word-spacing:0px;fill:#000000;fill-opacity:1;stroke:none;stroke-width:0.26458332"
       id="text845">
      <path
         d="m 73.912081,103.8925 q 0,0.22945 -0.0062,0.38448 -0.0062,0.15502 -0.0186,0.29145 H 69.51545 q 0,0.95498 0.533301,1.46968 0.533301,0.50849 1.53789,0.50849 0.272852,0 0.545704,-0.0186 0.272851,-0.0248 0.527099,-0.062 0.254248,-0.0372 0.483692,-0.0806 0.235644,-0.0496 0.434082,-0.10542 v 0.88677 q -0.440284,0.12402 -0.998389,0.19844 -0.551904,0.0806 -1.147217,0.0806 -0.799951,0 -1.37666,-0.21704 -0.576709,-0.21704 -0.948779,-0.62632 -0.365869,-0.41547 -0.545703,-1.01079 -0.173633,-0.60151 -0.173633,-1.35805 0,-0.65733 0.186035,-1.24024 0.192236,-0.58911 0.551904,-1.02939 0.365869,-0.44649 0.892969,-0.70694 0.5271,-0.26044 1.196826,-0.26044 0.651123,0 1.153418,0.20463 0.502295,0.20464 0.843359,0.58291 0.347266,0.37207 0.520899,0.91158 0.179834,0.5333 0.179834,1.19682 z m -1.122412,-0.15503 q 0.0186,-0.41548 -0.08062,-0.75654 -0.09922,-0.34727 -0.310059,-0.59531 -0.204639,-0.24805 -0.514697,-0.38448 -0.310059,-0.14262 -0.719336,-0.14262 -0.353467,0 -0.644922,0.13642 -0.291455,0.13643 -0.502295,0.38448 -0.21084,0.24804 -0.341064,0.59531 -0.130225,0.34726 -0.161231,0.76274 z"
         style="font-style:normal;font-variant:normal;font-weight:normal;font-stretch:normal;font-size:12.69999981px;font-family:Consolas;-inkscape-font-specification:Consolas;fill:#000000;fill-opacity:1;stroke-width:0.26458332"
         id="path847"
         inkscape:connector-curvature="0" />
      <path
         d="m 75.065499,101.10818 h 1.227832 l 1.525488,4.11757 0.328662,1.00459 0.341065,-1.02939 1.513085,-4.09277 h 1.184424 l -2.443261,6.22597 h -1.240235 z"
         style="font-style:normal;font-variant:normal;font-weight:normal;font-stretch:normal;font-size:12.69999981px;font-family:Consolas;-inkscape-font-specification:Consolas;fill:#000000;fill-opacity:1;stroke-width:0.26458332"
         id="path849"
         inkscape:connector-curvature="0" />
      <path
         d="m 87.901923,103.8925 q 0,0.22945 -0.0062,0.38448 -0.0062,0.15502 -0.0186,0.29145 h -4.371827 q 0,0.95498 0.533301,1.46968 0.533301,0.50849 1.537891,0.50849 0.272851,0 0.545703,-0.0186 0.272852,-0.0248 0.5271,-0.062 0.254248,-0.0372 0.483691,-0.0806 0.235645,-0.0496 0.434082,-0.10542 v 0.88677 q -0.440283,0.12402 -0.998389,0.19844 -0.551904,0.0806 -1.147216,0.0806 -0.799952,0 -1.376661,-0.21704 -0.576709,-0.21704 -0.948779,-0.62632 -0.365869,-0.41547 -0.545703,-1.01079 -0.173633,-0.60151 -0.173633,-1.35805 0,-0.65733 0.186035,-1.24024 0.192237,-0.58911 0.551905,-1.02939 0.365869,-0.44649 0.892968,-0.70694 0.5271,-0.26044 1.196827,-0.26044 0.651123,0 1.153418,0.20463 0.502294,0.20464 0.843359,0.58291 0.347265,0.37207 0.520898,0.91158 0.179834,0.5333 0.179834,1.19682 z m -1.122412,-0.15503 q 0.0186,-0.41548 -0.08061,-0.75654 -0.09922,-0.34727 -0.310059,-0.59531 -0.204638,-0.24805 -0.514697,-0.38448 -0.310058,-0.14262 -0.719336,-0.14262 -0.353467,0 -0.644922,0.13642 -0.291455,0.13643 -0.502295,0.38448 -0.210839,0.24804 -0.341064,0.59531 -0.130225,0.34726 -0.161231,0.76274 z"
         style="font-style:normal;font-variant:normal;font-weight:normal;font-stretch:normal;font-size:12.69999981px;font-family:Consolas;-inkscape-font-specification:Consolas;fill:#000000;fill-opacity:1;stroke-width:0.26458332"
         id="path851"
         inkscape:connector-curvature="0" />
      <path
         d="m 95.23791,107.33415 h -1.48208 l -2.902148,-3.33623 v 3.33623 h -1.079004 v -8.762273 h 1.079004 v 5.382633 l 2.796728,-2.84633 h 1.42627 l -2.920752,2.87114 z"
         style="font-style:normal;font-variant:normal;font-weight:normal;font-stretch:normal;font-size:12.69999981px;font-family:Consolas;-inkscape-font-specification:Consolas;fill:#000000;fill-opacity:1;stroke-width:0.26458332"
         id="path853"
         inkscape:connector-curvature="0" />
    </g>
    <path
       d="m 65.983279,103.86357 c 0,0.15297 -0.6198,0.20416 -0.527098,0.68834 -0.0041,0.10335 -0.05535,-1.05711 -0.06362,-0.96616 l -3.222175,2.16807 c 0.123058,0.29734 0.412581,0.50134 0.412581,0.50134 0.47129,0.28111 0.709,0.29144 1.378726,0.29144 0.181901,0 0.406879,-0.073 0.675596,-0.2007 0.376476,-0.21376 0.590709,-0.45143 0.71593,-0.89825 0.111623,-0.58912 0.03934,-1.8619 0.03934,-1.8619 l 0.77675,2.49579 c -0.293523,0.0827 -0.276003,0.63128 -1.076667,1.05516 -0.396875,0.22734 -0.599626,0.27868 -1.097878,0.30909 -0.53231,0.0325 -0.992187,-0.0724 -1.37666,-0.21704 -0.384473,-0.14469 -0.700732,-0.35347 -0.948779,-0.62632 -0.243913,-0.27698 -0.425814,-0.61391 -0.545703,-1.01079 -0.115755,-0.40101 -0.173633,-0.85369 -0.173633,-1.35804 0,-0.43822 0.06201,-0.85163 0.186035,-1.24024 0.128157,-0.39274 0.312125,-0.73587 0.551904,-1.02939 0.243913,-0.29766 0.541569,-0.53331 0.892969,-0.70694 0.3514,-0.17363 0.750342,-0.26044 1.196826,-0.26044 0.434082,0 0.818555,0.0682 1.153418,0.20463 0.334863,0.13643 0.615983,0.33073 0.843359,0.58291 0.231511,0.24805 0.217041,0.65319 0.332797,1.01287 0.119889,0.35553 -0.196371,-0.0413 -0.196371,0.401 z m -0.769163,-1.05997 c 0.0124,-0.27699 0.124238,0.40471 0.05809,0.17734 -0.06615,-0.23151 -0.1695,-0.42995 -0.310059,-0.59531 -0.136426,-0.16537 -0.307992,-0.29353 -0.514697,-0.38448 -0.206706,-0.0951 -0.446485,-0.14262 -0.719336,-0.14262 -0.235645,0 -0.450619,0.0455 -0.644922,0.13642 -0.194303,0.0909 -0.463021,0.24805 -0.603581,0.41342 -0.14056,0.16536 -0.283187,0.39274 -0.370003,0.62425 -0.08682,0.23151 -0.328499,0.84234 -0.175537,1.90067 z"
       style="font-style:normal;font-variant:normal;font-weight:normal;font-stretch:normal;font-size:12.69999981px;line-height:1.25;font-family:Consolas;-inkscape-font-specification:Consolas;letter-spacing:0px;word-spacing:0px;fill:#000000;fill-opacity:1;stroke:none;stroke-width:0.26458332"
       id="path847-1"
       inkscape:connector-curvature="0"
       sodipodi:nodetypes="cccccscccccssccscccscccccccccsccccc" />
  </g>
</svg>
