<?xml version="1.0" encoding="UTF-8" standalone="no"?>
<!-- Created with Inkscape (http://www.inkscape.org/) -->

<svg
   xmlns:dc="http://purl.org/dc/elements/1.1/"
   xmlns:cc="http://creativecommons.org/ns#"
   xmlns:rdf="http://www.w3.org/1999/02/22-rdf-syntax-ns#"
   xmlns:svg="http://www.w3.org/2000/svg"
   xmlns="http://www.w3.org/2000/svg"
   xmlns:xlink="http://www.w3.org/1999/xlink"
   xmlns:sodipodi="http://sodipodi.sourceforge.net/DTD/sodipodi-0.dtd"
   xmlns:inkscape="http://www.inkscape.org/namespaces/inkscape"
   width="777.52551mm"
   height="410.53351mm"
   viewBox="0 0 777.52555 410.53349"
   version="1.1"
   id="svg8"
   sodipodi:docname="devek_og.svg"
   inkscape:version="0.92.4 (5da689c313, 2019-01-14)">
  <defs
     id="defs2">
    <linearGradient
       inkscape:collect="always"
       id="linearGradient839">
      <stop
         style="stop-color:#5500aa;stop-opacity:1;"
         offset="0"
         id="stop835" />
      <stop
         style="stop-color:#5050ff;stop-opacity:1"
         offset="1"
         id="stop837" />
    </linearGradient>
    <linearGradient
       inkscape:collect="always"
       xlink:href="#linearGradient839"
       id="linearGradient841"
       x1="208.90895"
       y1="-4.2402587"
       x2="585.67554"
       y2="474.71548"
       gradientUnits="userSpaceOnUse" />
  </defs>
  <sodipodi:namedview
     id="base"
     pagecolor="#ffffff"
     bordercolor="#666666"
     borderopacity="1.0"
     inkscape:pageopacity="0.0"
     inkscape:pageshadow="2"
     inkscape:zoom="0.29775281"
     inkscape:cx="1164.7145"
     inkscape:cy="622.97668"
     inkscape:document-units="mm"
     inkscape:current-layer="layer1"
     showgrid="false"
     inkscape:window-width="1920"
     inkscape:window-height="1017"
     inkscape:window-x="-8"
     inkscape:window-y="-8"
     inkscape:window-maximized="1" />
  <metadata
     id="metadata5">
    <rdf:RDF>
      <cc:Work
         rdf:about="">
        <dc:format>image/svg+xml</dc:format>
        <dc:type
           rdf:resource="http://purl.org/dc/dcmitype/StillImage" />
        <dc:title></dc:title>
      </cc:Work>
    </rdf:RDF>
  </metadata>
  <g
     inkscape:label="Layer 1"
     inkscape:groupmode="layer"
     id="layer1"
     transform="translate(56.782635,52.224697)">
    <rect
       style="fill:url(#linearGradient841);fill-opacity:1;stroke:none;stroke-width:8;stroke-linecap:square;stroke-miterlimit:4;stroke-dasharray:none;stroke-opacity:1"
       id="rect6618"
       width="777.52551"
       height="410.53351"
       x="-56.782635"
       y="-52.224697" />
    <flowRoot
       xml:space="preserve"
       id="flowRoot4638"
       style="font-style:normal;font-weight:normal;font-size:293.33334351px;line-height:1.25;font-family:sans-serif;letter-spacing:0px;word-spacing:0px;fill:#000000;fill-opacity:1;stroke:none"
       transform="matrix(0.26458333,0,0,0.26458333,-26.458334,-5.074996)"><flowRegion
         id="flowRegion4640"
         style="font-size:293.33334351px"><rect
           id="rect4642"
           width="1306"
           height="552"
           x="662"
           y="215.70081"
           style="font-size:293.33334351px" /></flowRegion><flowPara
         id="flowPara4644"
         style="font-size:384px">DEVEKDE</flowPara></flowRoot>    <flowRoot
       xml:space="preserve"
       id="flowRoot7163"
       style="font-style:normal;font-weight:normal;font-size:40px;line-height:1.25;font-family:sans-serif;letter-spacing:0px;word-spacing:0px;fill:#000000;fill-opacity:1;stroke:none"
       transform="matrix(0.26458333,0,0,0.26458333,138.84955,7.7220702)"><flowRegion
         id="flowRegion7165"><rect
           id="rect7167"
           width="2636.415"
           height="476.90567"
           x="-120.90566"
           y="757.46729" /></flowRegion><flowPara
         id="flowPara7169"
         style="font-style:normal;font-variant:normal;font-weight:normal;font-stretch:normal;font-size:240px;font-family:Consolas;-inkscape-font-specification:Consolas;fill:#ffffff;fill-opacity:1">Developer Kit</flowPara></flowRoot>    <g
       aria-label="01"
       transform="matrix(4.4281172,0,0,4.4281172,-980.0598,-1558.0891)"
       style="font-style:normal;font-variant:normal;font-weight:normal;font-stretch:normal;font-size:5.33333349px;line-height:1.25;font-family:'Courier New';-inkscape-font-specification:'Courier New';letter-spacing:0px;word-spacing:0px;fill:#ffffff;fill-opacity:1;stroke:none"
       id="flowRoot828">
      <path
         d="m 252.72135,394.48101 -3.33621,-0.005 v -36.21599 c -0.67708,0.64583 -1.5677,1.29167 -2.67187,1.9375 -1.09375,0.64583 -2.07813,1.13021 -2.95313,1.45312 l -1.25722,-2.71875 c 1.57292,-0.73958 3.37141,-1.63541 4.54849,-2.6875 1.17709,-1.05208 1.90455,-2.07291 2.39413,-3.0625 h 3.27581 z"
         style="font-style:normal;font-variant:normal;font-weight:normal;font-stretch:normal;font-family:Arial;-inkscape-font-specification:Arial;fill:#ffffff;fill-opacity:1"
         id="path840"
         inkscape:connector-curvature="0"
         sodipodi:nodetypes="cccccccccc" />
    </g>
    <g
       transform="matrix(16.736192,0,0,16.736192,-972.10888,-1607.7827)"
       aria-label=" evek"
       style="font-style:normal;font-weight:normal;font-size:10.58333302px;line-height:1.25;font-family:sans-serif;letter-spacing:0px;word-spacing:0px;fill:#ffffff;fill-opacity:1;stroke:none;stroke-width:0.26458332"
       id="text845">
      <path
         d="m 73.912081,103.8925 q 0,0.22945 -0.0062,0.38448 -0.0062,0.15502 -0.0186,0.29145 H 69.51545 q 0,0.95498 0.533301,1.46968 0.533301,0.50849 1.53789,0.50849 0.272852,0 0.545704,-0.0186 0.272851,-0.0248 0.527099,-0.062 0.254248,-0.0372 0.483692,-0.0806 0.235644,-0.0496 0.434082,-0.10542 v 0.88677 q -0.440284,0.12402 -0.998389,0.19844 -0.551904,0.0806 -1.147217,0.0806 -0.799951,0 -1.37666,-0.21704 -0.576709,-0.21704 -0.948779,-0.62632 -0.365869,-0.41547 -0.545703,-1.01079 -0.173633,-0.60151 -0.173633,-1.35805 0,-0.65733 0.186035,-1.24024 0.192236,-0.58911 0.551904,-1.02939 0.365869,-0.44649 0.892969,-0.70694 0.5271,-0.26044 1.196826,-0.26044 0.651123,0 1.153418,0.20463 0.502295,0.20464 0.843359,0.58291 0.347266,0.37207 0.520899,0.91158 0.179834,0.5333 0.179834,1.19682 z m -1.122412,-0.15503 q 0.0186,-0.41548 -0.08062,-0.75654 -0.09922,-0.34727 -0.310059,-0.59531 -0.204639,-0.24805 -0.514697,-0.38448 -0.310059,-0.14262 -0.719336,-0.14262 -0.353467,0 -0.644922,0.13642 -0.291455,0.13643 -0.502295,0.38448 -0.21084,0.24804 -0.341064,0.59531 -0.130225,0.34726 -0.161231,0.76274 z"
         style="font-style:normal;font-variant:normal;font-weight:normal;font-stretch:normal;font-size:12.69999981px;font-family:Consolas;-inkscape-font-specification:Consolas;fill:#ffffff;fill-opacity:1;stroke-width:0.26458332"
         id="path847"
         inkscape:connector-curvature="0" />
      <path
         d="m 75.065499,101.10818 h 1.227832 l 1.525488,4.11757 0.328662,1.00459 0.341065,-1.02939 1.513085,-4.09277 h 1.184424 l -2.443261,6.22597 h -1.240235 z"
         style="font-style:normal;font-variant:normal;font-weight:normal;font-stretch:normal;font-size:12.69999981px;font-family:Consolas;-inkscape-font-specification:Consolas;fill:#ffffff;fill-opacity:1;stroke-width:0.26458332"
         id="path849"
         inkscape:connector-curvature="0" />
      <path
         d="m 87.901923,103.8925 q 0,0.22945 -0.0062,0.38448 -0.0062,0.15502 -0.0186,0.29145 h -4.371827 q 0,0.95498 0.533301,1.46968 0.533301,0.50849 1.537891,0.50849 0.272851,0 0.545703,-0.0186 0.272852,-0.0248 0.5271,-0.062 0.254248,-0.0372 0.483691,-0.0806 0.235645,-0.0496 0.434082,-0.10542 v 0.88677 q -0.440283,0.12402 -0.998389,0.19844 -0.551904,0.0806 -1.147216,0.0806 -0.799952,0 -1.376661,-0.21704 -0.576709,-0.21704 -0.948779,-0.62632 -0.365869,-0.41547 -0.545703,-1.01079 -0.173633,-0.60151 -0.173633,-1.35805 0,-0.65733 0.186035,-1.24024 0.192237,-0.58911 0.551905,-1.02939 0.365869,-0.44649 0.892968,-0.70694 0.5271,-0.26044 1.196827,-0.26044 0.651123,0 1.153418,0.20463 0.502294,0.20464 0.843359,0.58291 0.347265,0.37207 0.520898,0.91158 0.179834,0.5333 0.179834,1.19682 z m -1.122412,-0.15503 q 0.0186,-0.41548 -0.08061,-0.75654 -0.09922,-0.34727 -0.310059,-0.59531 -0.204638,-0.24805 -0.514697,-0.38448 -0.310058,-0.14262 -0.719336,-0.14262 -0.353467,0 -0.644922,0.13642 -0.291455,0.13643 -0.502295,0.38448 -0.210839,0.24804 -0.341064,0.59531 -0.130225,0.34726 -0.161231,0.76274 z"
         style="font-style:normal;font-variant:normal;font-weight:normal;font-stretch:normal;font-size:12.69999981px;font-family:Consolas;-inkscape-font-specification:Consolas;fill:#ffffff;fill-opacity:1;stroke-width:0.26458332"
         id="path851"
         inkscape:connector-curvature="0" />
      <path
         d="m 95.23791,107.33415 h -1.48208 l -2.902148,-3.33623 v 3.33623 h -1.079004 v -8.762273 h 1.079004 v 5.382633 l 2.796728,-2.84633 h 1.42627 l -2.920752,2.87114 z"
         style="font-style:normal;font-variant:normal;font-weight:normal;font-stretch:normal;font-size:12.69999981px;font-family:Consolas;-inkscape-font-specification:Consolas;fill:#ffffff;fill-opacity:1;stroke-width:0.26458332"
         id="path853"
         inkscape:connector-curvature="0" />
    </g>
    <path
       d="m 132.1999,130.49782 c 0,2.56013 -10.37309,3.41685 -8.82148,11.52019 -0.067,1.72967 -0.92719,-17.692 -1.06443,-16.16984 L 68.38695,162.1334 c 2.059556,4.97634 6.905017,8.39053 6.905017,8.39053 7.887598,4.7047 11.865966,4.87758 23.074697,4.87758 3.044316,0 6.809636,-1.22173 11.306816,-3.35895 6.30085,-3.57752 9.88624,-7.55521 11.98195,-15.03327 1.86826,-9.85964 0.65773,-31.16112 0.65773,-31.16112 l 12.99983,41.77002 c -4.9124,1.38407 -4.61918,10.56522 -18.01919,17.65935 -6.64225,3.80481 -10.03551,4.66404 -18.374345,5.173 -8.908838,0.54392 -16.605476,-1.2117 -23.040045,-3.63244 -6.434558,-2.42155 -11.727549,-5.91573 -15.878962,-10.4822 -4.082123,-4.63559 -7.126445,-10.27452 -9.132943,-16.91677 -1.937382,-6.71138 -2.906068,-14.28752 -2.906068,-22.72842 0,-7.33413 1.037637,-14.25305 3.113601,-20.75689 2.144903,-6.57298 5.2237,-12.31568 9.236696,-17.228078 4.082298,-4.981693 9.063828,-8.925574 14.944928,-11.831479 5.881088,-2.905905 12.557829,-4.358781 20.030374,-4.358781 7.264854,0 13.699424,1.141414 19.303874,3.424735 5.60429,2.28332 10.30916,5.535162 14.11463,9.75569 3.87461,4.151413 3.63243,10.931913 5.56964,16.951593 2.00651,5.95021 -3.28648,-0.69121 -3.28648,6.7112 z m -12.87281,-17.73987 c 0.20753,-4.63576 2.0793,6.77331 0.97238,2.96799 -1.10628,-3.87459 -2.83679,-7.19572 -5.18923,-9.96322 -2.28316,-2.76766 -5.15459,-4.91257 -8.61395,-6.434721 -3.45954,-1.591621 -7.472564,-2.386923 -12.039043,-2.386923 -3.943881,0 -7.541661,0.761504 -10.793503,2.283157 -3.252006,1.521317 -7.749192,4.151417 -10.101628,6.919077 -2.352435,2.7675 -4.739521,6.57297 -6.192562,10.44757 -1.452701,3.87459 -5.497835,14.09756 -2.937704,31.80997 z"
       style="font-style:normal;font-variant:normal;font-weight:normal;font-stretch:normal;font-size:12.69999981px;line-height:1.25;font-family:Consolas;-inkscape-font-specification:Consolas;letter-spacing:0px;word-spacing:0px;fill:#ffffff;fill-opacity:1;stroke:none;stroke-width:4.42811728"
       id="path847-1"
       inkscape:connector-curvature="0"
       sodipodi:nodetypes="cccccscccccssccscccscccccccccsccccc" />
  </g>
</svg>
