<?xml version="1.0" encoding="UTF-8"?><svg width="10.558mm" height="21.416mm" version="1.1" viewBox="0 0 10.557914 21.416362" xmlns="http://www.w3.org/2000/svg"><defs><linearGradient id="a" x1="99.711" x2="82.513" y1="117.96" y2="72.6" gradientUnits="userSpaceOnUse"><stop stop-color="#fff" offset="0"/><stop stop-color="#fff" stop-opacity="0" offset="1"/></linearGradient></defs><g transform="translate(-80.098 -69.749)"><path d="m89.866 84.202c0 0.29684-1.2027 0.39617-1.0228 1.3357-0.0079 0.20055-0.1074-2.0513-0.12346-1.8748l-6.2527 4.2072c0.2388 0.57699 0.80062 0.97286 0.80062 0.97286 0.91454 0.5455 1.3758 0.56554 2.6754 0.56554 0.35298 0 0.78955-0.14166 1.311-0.38946 0.73056-0.4148 1.1463-0.876 1.3893-1.7431 0.21661-1.1432 0.07634-3.613 0.07634-3.613l1.5073 4.8431c-0.56958 0.16048-0.53559 1.225-2.0893 2.0475-0.77014 0.44116-1.1636 0.54078-2.1304 0.59979-1.033 0.06307-1.9254-0.14049-2.6714-0.42117-0.74607-0.28077-1.3598-0.68591-1.8411-1.2154-0.47332-0.53748-0.8263-1.1913-1.0589-1.9614-0.22462-0.77816-0.33694-1.6566-0.33694-2.6353 0-0.85037 0.12033-1.6526 0.361-2.4067 0.24869-0.76212 0.60568-1.428 1.071-1.9975 0.47332-0.57761 1.0509-1.0349 1.7328-1.3718 0.68189-0.33693 1.456-0.50539 2.3225-0.50539 0.84234 0 1.5884 0.13234 2.2382 0.39709 0.6498 0.26474 1.1953 0.64179 1.6365 1.1311 0.44925 0.48134 0.42117 1.2675 0.6458 1.9655 0.23265 0.68991-0.38106-0.08015-0.38106 0.77814zm-1.4926-2.0569c0.02406-0.5375 0.24108 0.78534 0.11272 0.34413-0.12836-0.44925-0.32892-0.83432-0.60167-1.1552-0.26474-0.3209-0.59766-0.5696-0.99878-0.74609-0.40112-0.18454-0.86641-0.27676-1.3959-0.27676-0.45727 0-0.87443 0.08829-1.2515 0.26473-0.37705 0.17639-0.8985 0.48134-1.1713 0.80224-0.27276 0.32088-0.54953 0.76212-0.71799 1.2114-0.16848 0.44925-0.63746 1.6346-0.34063 3.6883zm2.2833 8.8075-1.7129-0.0026v-18.594c-0.34763 0.33159-0.8049 0.66318-1.3718 0.99476-0.56156 0.33159-1.067 0.58028-1.5162 0.74607l-0.64549-1.3959c0.80758-0.37972 1.731-0.83966 2.3353-1.3798 0.60435-0.54017 0.97785-1.0643 1.2292-1.5724h1.6819z" fill="url(#a)"/></g></svg>
