<?xml version="1.0" encoding="UTF-8" standalone="no"?>
<!-- Created with Inkscape (http://www.inkscape.org/) -->

<svg
   xmlns:dc="http://purl.org/dc/elements/1.1/"
   xmlns:cc="http://creativecommons.org/ns#"
   xmlns:rdf="http://www.w3.org/1999/02/22-rdf-syntax-ns#"
   xmlns:svg="http://www.w3.org/2000/svg"
   xmlns="http://www.w3.org/2000/svg"
   xmlns:sodipodi="http://sodipodi.sourceforge.net/DTD/sodipodi-0.dtd"
   xmlns:inkscape="http://www.inkscape.org/namespaces/inkscape"
   width="187.30188mm"
   height="51.151417mm"
   viewBox="0 0 187.30189 51.151416"
   version="1.1"
   id="svg8"
   sodipodi:docname="devek-logo-black-with-text.svg"
   inkscape:version="0.92.4 (5da689c313, 2019-01-14)">
  <defs
     id="defs2" />
  <sodipodi:namedview
     id="base"
     pagecolor="#ffffff"
     bordercolor="#666666"
     borderopacity="1.0"
     inkscape:pageopacity="0.0"
     inkscape:pageshadow="2"
     inkscape:zoom="2.4030051"
     inkscape:cx="349.28302"
     inkscape:cy="75.566037"
     inkscape:document-units="mm"
     inkscape:current-layer="layer1"
     showgrid="false"
     inkscape:window-width="2560"
     inkscape:window-height="1387"
     inkscape:window-x="2552"
     inkscape:window-y="-8"
     inkscape:window-maximized="1" />
  <metadata
     id="metadata5">
    <rdf:RDF>
      <cc:Work
         rdf:about="">
        <dc:format>image/svg+xml</dc:format>
        <dc:type
           rdf:resource="http://purl.org/dc/dcmitype/StillImage" />
        <dc:title />
      </cc:Work>
    </rdf:RDF>
  </metadata>
  <g
     inkscape:label="Layer 1"
     inkscape:groupmode="layer"
     id="layer1"
     transform="translate(-15.194018,-13.942279)">
    <ellipse
       id="path3735"
       cx="28.446617"
       cy="45.689342"
       rx="5.4245043"
       ry="8.0974474"
       style="fill:none;stroke:#000000;stroke-width:2.37705088;stroke-miterlimit:4;stroke-dasharray:none;stroke-opacity:1" />
    <ellipse
       id="path3735-1"
       cx="28.524639"
       cy="45.728649"
       rx="12.142096"
       ry="18.125154"
       style="fill:none;stroke:#000000;stroke-width:2.37705088;stroke-miterlimit:4;stroke-dasharray:none;stroke-opacity:1" />
    <path
       style="fill:none;stroke:#000000;stroke-width:2.07991958;stroke-linecap:square;stroke-linejoin:miter;stroke-miterlimit:4;stroke-dasharray:none;stroke-opacity:1"
       d="m 28.76108,27.529045 c 11.949631,-0.07862 11.949631,-0.07862 11.949631,-0.07862"
       id="path4557"
       inkscape:connector-curvature="0" />
    <path
       style="fill:none;stroke:#000000;stroke-width:2.07991958;stroke-linecap:square;stroke-linejoin:miter;stroke-miterlimit:4;stroke-dasharray:none;stroke-opacity:1"
       d="m 40.788699,15.068356 10.69312,-0.07851"
       id="path4557-7"
       inkscape:connector-curvature="0"
       sodipodi:nodetypes="cc" />
    <path
       style="fill:none;stroke:#000000;stroke-width:2.07991958;stroke-linecap:square;stroke-linejoin:miter;stroke-miterlimit:4;stroke-dasharray:none;stroke-opacity:1"
       d="m 40.787214,45.492647 0.0014,-30.424291"
       id="path4557-7-4"
       inkscape:connector-curvature="0"
       sodipodi:nodetypes="cc" />
    <path
       style="fill:none;stroke:#000000;stroke-width:2.07991958;stroke-linecap:square;stroke-linejoin:miter;stroke-miterlimit:4;stroke-dasharray:none;stroke-opacity:1"
       d="M 28.917642,64.046127 39.61076,63.967612"
       id="path4557-7-5"
       inkscape:connector-curvature="0"
       sodipodi:nodetypes="cc" />
    <path
       style="fill:none;stroke:#000000;stroke-width:2.07991958;stroke-linecap:square;stroke-linejoin:miter;stroke-miterlimit:4;stroke-dasharray:none;stroke-opacity:1"
       d="m 51.480353,46.278891 0.0014,-31.289029"
       id="path4557-7-4-1"
       inkscape:connector-curvature="0"
       sodipodi:nodetypes="cc" />
    <path
       style="fill:none;stroke:#000000;stroke-width:2.07991958;stroke-linecap:square;stroke-linejoin:miter;stroke-miterlimit:4;stroke-dasharray:none;stroke-opacity:1"
       d="m 51.480353,46.436123 c 0,0 -0.177963,5.12716 -1.021255,7.507898 -0.859827,2.427418 -1.400948,3.843926 -3.144642,6.210666 -1.057087,1.434797 -2.347152,2.659257 -4.009417,3.301872 -0.786617,0.304099 -3.694279,0.511054 -3.694279,0.511054"
       id="path4619"
       inkscape:connector-curvature="0"
       sodipodi:nodetypes="csssc" />
    <path
       style="fill:none;stroke:#000000;stroke-width:0.07861599px;stroke-linecap:butt;stroke-linejoin:miter;stroke-opacity:1"
       d="M 39.61076,63.810381 Z"
       id="path4621"
       inkscape:connector-curvature="0" />
    <flowRoot
       xml:space="preserve"
       id="flowRoot4638"
       style="font-style:normal;font-weight:normal;font-size:293.33334351px;line-height:1.25;font-family:sans-serif;letter-spacing:0px;word-spacing:0px;fill:#000000;fill-opacity:1;stroke:none"
       transform="matrix(0.26458333,0,0,0.26458333,-26.458334,-5.074996)"><flowRegion
         id="flowRegion4640"
         style="font-size:293.33334351px"><rect
           id="rect4642"
           width="1306"
           height="552"
           x="662"
           y="215.70081"
           style="font-size:293.33334351px" /></flowRegion><flowPara
         id="flowPara4644"
         style="font-size:384px">DEVEKDE</flowPara></flowRoot>    <g
       aria-label="evek"
       transform="matrix(0.078616,0,0,0.078616,5.2548968,-12.305745)"
       style="font-style:normal;font-weight:normal;font-size:560px;line-height:1.25;font-family:sans-serif;letter-spacing:0px;word-spacing:0px;fill:#000000;fill-opacity:1;stroke:none"
       id="flowRoot4646">
      <path
         d="m 1076,714.86786 q 0,15.41667 -0.4166,25.83334 -0.4167,10.41666 -1.25,19.58333 H 780.58334 q 0,64.16667 35.83333,98.75001 35.83334,34.16666 103.33334,34.16666 18.33334,0 36.66667,-1.25 18.33334,-1.66666 35.41667,-4.16666 17.08335,-2.5 32.50005,-5.41667 15.8333,-3.33333 29.1666,-7.08333 v 59.58333 q -29.5833,8.33334 -67.08332,13.33334 -37.08333,5.41666 -77.08333,5.41666 -53.75001,0 -92.50001,-14.58333 -38.75,-14.58333 -63.75,-42.08334 Q 728.5,869.03454 716.41667,829.03453 704.75,788.61787 704.75,737.78453 q 0,-44.16667 12.5,-83.33334 12.91667,-39.58333 37.08334,-69.16667 24.58333,-30 60,-47.5 35.41667,-17.5 80.41667,-17.5 43.75,0 77.50001,13.75 33.74998,13.75 56.66668,39.16667 23.3333,25 35,61.25 Q 1076,670.28453 1076,714.86786 Z m -75.4167,-10.41666 q 1.25,-27.91667 -5.41662,-50.83334 -6.66666,-23.33333 -20.83333,-40 -13.75,-16.66667 -34.58334,-25.83334 -20.83333,-9.58333 -48.33333,-9.58333 -23.75,0 -43.33334,9.16667 -19.58333,9.16666 -33.75,25.83333 -14.16667,16.66667 -22.91667,40 -8.75,23.33334 -10.83333,51.25001 z"
         style="font-style:normal;font-variant:normal;font-weight:normal;font-stretch:normal;font-size:853.33337402px;font-family:Consolas;-inkscape-font-specification:Consolas;letter-spacing:0px"
         id="path4654"
         inkscape:connector-curvature="0" />
      <path
         d="m 1153.5,527.78452 h 82.5 l 102.5,276.66668 22.0834,67.5 22.9166,-69.16667 101.6667,-275.00001 h 79.5834 L 1400.5834,946.11787 H 1317.25 Z"
         style="font-style:normal;font-variant:normal;font-weight:normal;font-stretch:normal;font-size:853.33337402px;font-family:Consolas;-inkscape-font-specification:Consolas;letter-spacing:0px"
         id="path4656"
         inkscape:connector-curvature="0" />
      <path
         d="m 2016.0001,714.86786 q 0,15.41667 -0.4167,25.83334 -0.4167,10.41666 -1.25,19.58333 h -293.75 q 0,64.16667 35.8333,98.75001 35.8334,34.16666 103.3334,34.16666 18.3333,0 36.6666,-1.25 18.3334,-1.66666 35.4167,-4.16666 17.0833,-2.5 32.5,-5.41667 15.8333,-3.33333 29.1667,-7.08333 v 59.58333 q -29.5834,8.33334 -67.0834,13.33334 -37.0833,5.41666 -77.0833,5.41666 -53.75,0 -92.5,-14.58333 -38.75,-14.58333 -63.75,-42.08334 -24.5833,-27.91666 -36.6667,-67.91667 -11.6666,-40.41666 -11.6666,-91.25 0,-44.16667 12.5,-83.33334 12.9166,-39.58333 37.0833,-69.16667 24.5833,-30 60,-47.5 35.4167,-17.5 80.4167,-17.5 43.75,0 77.5,13.75 33.75,13.75 56.6666,39.16667 23.3334,25 35,61.25 12.0834,35.83334 12.0834,80.41667 z m -75.4167,-10.41666 q 1.25,-27.91667 -5.4167,-50.83334 -6.6666,-23.33333 -20.8333,-40 -13.75,-16.66667 -34.5833,-25.83334 -20.8334,-9.58333 -48.3334,-9.58333 -23.75,0 -43.3333,9.16667 -19.5833,9.16666 -33.75,25.83333 -14.1667,16.66667 -22.9167,40 -8.75,23.33334 -10.8333,51.25001 z"
         style="font-style:normal;font-variant:normal;font-weight:normal;font-stretch:normal;font-size:853.33337402px;font-family:Consolas;-inkscape-font-specification:Consolas;letter-spacing:0px"
         id="path4658"
         inkscape:connector-curvature="0" />
      <path
         d="m 2508.9168,946.11787 h -99.5833 l -195,-224.16667 v 224.16667 h -72.5 V 357.36785 h 72.5 v 361.66668 l 187.9166,-191.25001 h 95.8334 l -196.25,192.91668 z"
         style="font-style:normal;font-variant:normal;font-weight:normal;font-stretch:normal;font-size:853.33337402px;font-family:Consolas;-inkscape-font-specification:Consolas;letter-spacing:0px"
         id="path4660"
         inkscape:connector-curvature="0" />
    </g>
  </g>
</svg>
