<svg xmlns="http://www.w3.org/2000/svg" width="130" height="42" viewBox="0 0 34.288 11.036"><path d="M5.44 10.927l-.883-.001V1.344a3.82 3.82 0 0 1-.707.513c-.3.17-.55.3-.78.384l-.333-.72c.416-.196.892-.433 1.203-.7s.504-.548.633-.8h.867zm7.522-3.45q0 .23-.006.384-.006.155-.02.3h-4.37q0 .955.533 1.47.533.508 1.538.508.273 0 .546-.02.273-.025.527-.062.254-.037.484-.08.236-.05.434-.105v.887q-.44.124-.998.198-.552.08-1.147.08-.8 0-1.377-.217-.577-.217-.95-.626-.366-.415-.546-1-.174-.602-.174-1.358 0-.657.186-1.24.192-.6.552-1.03.366-.446.893-.707.527-.26 1.197-.26.65 0 1.153.205.502.205.843.583.347.372.52.912.18.533.18 1.197zm-1.122-.155q.02-.415-.08-.757-.1-.347-.3-.595-.205-.248-.515-.384-.3-.143-.72-.143-.353 0-.645.136-.3.136-.502.384-.2.248-.34.595-.13.347-.16.763zm2.275-2.63h1.228L16.87 8.8l.33 1.005.34-1.03 1.513-4.093h1.184l-2.443 6.226h-1.24zm12.837 2.784q0 .23-.006.384-.006.155-.02.3h-4.372q0 .955.533 1.47.533.508 1.538.508.273 0 .546-.02.273-.025.527-.062.254-.037.484-.08.236-.05.434-.105v.887q-.44.124-.998.198-.552.08-1.147.08-.8 0-1.377-.217-.577-.217-.95-.626-.366-.415-.546-1-.174-.602-.174-1.358 0-.657.186-1.24.192-.6.552-1.03.366-.446.893-.707.527-.26 1.197-.26.65 0 1.153.205.502.205.843.583.347.372.52.912.18.533.18 1.197zm-1.122-.155q.02-.415-.08-.757-.1-.347-.3-.595-.205-.248-.515-.384-.3-.143-.72-.143-.353 0-.645.136-.3.136-.502.384-.2.248-.34.595-.13.347-.16.763z"/><path d="M34.288 10.92h-1.482l-2.902-3.336v3.336h-1.08V2.157h1.08V7.54L32.7 4.693h1.426l-2.92 2.87zM5.033 7.45c0 .153-.62.204-.527.688-.004.103-.055-1.057-.064-.966L1.22 9.34a1.33 1.33 0 0 0 .413.501c.47.28.7.3 1.38.3.182 0 .407-.073.676-.2.376-.214.6-.45.716-.898.112-.6.04-1.862.04-1.862l.777 2.496c-.294.083-.276.63-1.077 1.055-.397.227-.6.28-1.098.3a3.3 3.3 0 0 1-1.377-.217c-.385-.145-.7-.353-.95-.626s-.426-.614-.546-1S0 8.323 0 7.82c0-.438.062-.852.186-1.24a3.13 3.13 0 0 1 .552-1.03c.24-.294.542-.533.893-.707s.75-.26 1.197-.26c.434 0 .82.068 1.153.205a2.27 2.27 0 0 1 .843.583c.232.248.217.653.333 1.013s-.196-.04-.196.4zm-.77-1.06c.012-.277.124.405.058.177s-.17-.43-.3-.595a1.37 1.37 0 0 0-.515-.384c-.207-.095-.446-.143-.72-.143-.236 0-.45.046-.645.136s-.463.248-.604.413a2.21 2.21 0 0 0-.37.624C1.08 6.85.84 7.46.99 8.518z"/></svg>