<?xml version="1.0" encoding="UTF-8" standalone="no"?>
<!-- Created with Inkscape (http://www.inkscape.org/) -->

<svg
   xmlns:dc="http://purl.org/dc/elements/1.1/"
   xmlns:cc="http://creativecommons.org/ns#"
   xmlns:rdf="http://www.w3.org/1999/02/22-rdf-syntax-ns#"
   xmlns:svg="http://www.w3.org/2000/svg"
   xmlns="http://www.w3.org/2000/svg"
   xmlns:sodipodi="http://sodipodi.sourceforge.net/DTD/sodipodi-0.dtd"
   xmlns:inkscape="http://www.inkscape.org/namespaces/inkscape"
   width="777.52551mm"
   height="410.53351mm"
   viewBox="0 0 777.52555 410.53349"
   version="1.1"
   id="svg8"
   sodipodi:docname="devek-open-graph.svg"
   inkscape:version="0.92.4 (5da689c313, 2019-01-14)">
  <defs
     id="defs2" />
  <sodipodi:namedview
     id="base"
     pagecolor="#ffffff"
     bordercolor="#666666"
     borderopacity="1.0"
     inkscape:pageopacity="0.0"
     inkscape:pageshadow="2"
     inkscape:zoom="0.29775281"
     inkscape:cx="937.79015"
     inkscape:cy="622.97668"
     inkscape:document-units="mm"
     inkscape:current-layer="layer1"
     showgrid="false"
     inkscape:window-width="1920"
     inkscape:window-height="1017"
     inkscape:window-x="-8"
     inkscape:window-y="-8"
     inkscape:window-maximized="1" />
  <metadata
     id="metadata5">
    <rdf:RDF>
      <cc:Work
         rdf:about="">
        <dc:format>image/svg+xml</dc:format>
        <dc:type
           rdf:resource="http://purl.org/dc/dcmitype/StillImage" />
        <dc:title></dc:title>
      </cc:Work>
    </rdf:RDF>
  </metadata>
  <g
     inkscape:label="Layer 1"
     inkscape:groupmode="layer"
     id="layer1"
     transform="translate(56.782635,52.224697)">
    <rect
       style="fill:#5500aa;fill-opacity:1;stroke:none;stroke-width:8;stroke-linecap:square;stroke-miterlimit:4;stroke-dasharray:none;stroke-opacity:1"
       id="rect6618"
       width="777.52551"
       height="410.53351"
       x="-56.782635"
       y="-52.224697" />
    <ellipse
       id="path3735"
       cx="59.795834"
       cy="120.7875"
       rx="18.25625"
       ry="27.252083"
       style="fill:none;stroke:#ffffff;stroke-width:8;stroke-miterlimit:4;stroke-dasharray:none;stroke-opacity:1" />
    <ellipse
       id="path3735-1"
       cx="60.058422"
       cy="120.91979"
       rx="40.864403"
       ry="61.000477"
       style="fill:none;stroke:#ffffff;stroke-width:8;stroke-miterlimit:4;stroke-dasharray:none;stroke-opacity:1" />
    <path
       style="fill:none;stroke:#ffffff;stroke-width:7;stroke-linecap:square;stroke-linejoin:miter;stroke-miterlimit:4;stroke-dasharray:none;stroke-opacity:1"
       d="M 60.854166,59.668751 C 101.07083,59.404167 101.07083,59.404167 101.07083,59.404167"
       id="path4557"
       inkscape:connector-curvature="0" />
    <path
       style="fill:none;stroke:#ffffff;stroke-width:7;stroke-linecap:square;stroke-linejoin:miter;stroke-miterlimit:4;stroke-dasharray:none;stroke-opacity:1"
       d="m 101.3333,17.732121 35.98785,-0.264242"
       id="path4557-7"
       inkscape:connector-curvature="0"
       sodipodi:nodetypes="cc" />
    <path
       style="fill:none;stroke:#ffffff;stroke-width:7;stroke-linecap:square;stroke-linejoin:miter;stroke-miterlimit:4;stroke-dasharray:none;stroke-opacity:1"
       d="m 101.3283,120.12553 0.005,-102.393409"
       id="path4557-7-4"
       inkscape:connector-curvature="0"
       sodipodi:nodetypes="cc" />
    <path
       style="fill:none;stroke:#ffffff;stroke-width:7;stroke-linecap:square;stroke-linejoin:miter;stroke-miterlimit:4;stroke-dasharray:none;stroke-opacity:1"
       d="m 61.381077,182.56754 35.98785,-0.26424"
       id="path4557-7-5"
       inkscape:connector-curvature="0"
       sodipodi:nodetypes="cc" />
    <path
       style="fill:none;stroke:#ffffff;stroke-width:7;stroke-linecap:square;stroke-linejoin:miter;stroke-miterlimit:4;stroke-dasharray:none;stroke-opacity:1"
       d="m 137.31622,122.77164 0.005,-105.303692"
       id="path4557-7-4-1"
       inkscape:connector-curvature="0"
       sodipodi:nodetypes="cc" />
    <path
       style="fill:none;stroke:#ffffff;stroke-width:7;stroke-linecap:square;stroke-linejoin:miter;stroke-miterlimit:4;stroke-dasharray:none;stroke-opacity:1"
       d="m 137.31622,123.30081 c 0,0 -0.59894,17.25553 -3.43705,25.26794 -2.89376,8.16951 -4.71491,12.93679 -10.58334,20.90209 -3.55764,4.82883 -7.89937,8.94977 -13.49375,11.1125 -2.64737,1.02345 -12.433155,1.71996 -12.433155,1.71996"
       id="path4619"
       inkscape:connector-curvature="0"
       sodipodi:nodetypes="csssc" />
    <path
       style="fill:none;stroke:#ffffff;stroke-width:0.26458332px;stroke-linecap:butt;stroke-linejoin:miter;stroke-opacity:1"
       d="M 97.368925,181.77413 Z"
       id="path4621"
       inkscape:connector-curvature="0" />
    <flowRoot
       xml:space="preserve"
       id="flowRoot4638"
       style="font-style:normal;font-weight:normal;font-size:293.33334351px;line-height:1.25;font-family:sans-serif;letter-spacing:0px;word-spacing:0px;fill:#000000;fill-opacity:1;stroke:none"
       transform="matrix(0.26458333,0,0,0.26458333,-26.458334,-5.074996)"><flowRegion
         id="flowRegion4640"
         style="font-size:293.33334351px"><rect
           id="rect4642"
           width="1306"
           height="552"
           x="662"
           y="215.70081"
           style="font-size:293.33334351px" /></flowRegion><flowPara
         id="flowPara4644"
         style="font-size:384px">DEVEKDE</flowPara></flowRoot>    <g
       aria-label="evek"
       transform="matrix(0.26458333,0,0,0.26458333,-23.547916,-74.395829)"
       style="font-style:normal;font-weight:normal;font-size:560px;line-height:1.25;font-family:sans-serif;letter-spacing:0px;word-spacing:0px;fill:#ffffff;fill-opacity:1;stroke:none"
       id="flowRoot4646">
      <path
         d="m 1076,714.86786 q 0,15.41667 -0.4166,25.83334 -0.4167,10.41666 -1.25,19.58333 H 780.58334 q 0,64.16667 35.83333,98.75001 35.83334,34.16666 103.33334,34.16666 18.33334,0 36.66667,-1.25 18.33334,-1.66666 35.41667,-4.16666 17.08335,-2.5 32.50005,-5.41667 15.8333,-3.33333 29.1666,-7.08333 v 59.58333 q -29.5833,8.33334 -67.08332,13.33334 -37.08333,5.41666 -77.08333,5.41666 -53.75001,0 -92.50001,-14.58333 -38.75,-14.58333 -63.75,-42.08334 Q 728.5,869.03454 716.41667,829.03453 704.75,788.61787 704.75,737.78453 q 0,-44.16667 12.5,-83.33334 12.91667,-39.58333 37.08334,-69.16667 24.58333,-30 60,-47.5 35.41667,-17.5 80.41667,-17.5 43.75,0 77.50001,13.75 33.74998,13.75 56.66668,39.16667 23.3333,25 35,61.25 Q 1076,670.28453 1076,714.86786 Z m -75.4167,-10.41666 q 1.25,-27.91667 -5.41662,-50.83334 -6.66666,-23.33333 -20.83333,-40 -13.75,-16.66667 -34.58334,-25.83334 -20.83333,-9.58333 -48.33333,-9.58333 -23.75,0 -43.33334,9.16667 -19.58333,9.16666 -33.75,25.83333 -14.16667,16.66667 -22.91667,40 -8.75,23.33334 -10.83333,51.25001 z"
         style="font-style:normal;font-variant:normal;font-weight:normal;font-stretch:normal;font-size:853.33337402px;font-family:Consolas;-inkscape-font-specification:Consolas;letter-spacing:0px;fill:#ffffff;fill-opacity:1"
         id="path4654"
         inkscape:connector-curvature="0" />
      <path
         d="m 1153.5,527.78452 h 82.5 l 102.5,276.66668 22.0834,67.5 22.9166,-69.16667 101.6667,-275.00001 h 79.5834 L 1400.5834,946.11787 H 1317.25 Z"
         style="font-style:normal;font-variant:normal;font-weight:normal;font-stretch:normal;font-size:853.33337402px;font-family:Consolas;-inkscape-font-specification:Consolas;letter-spacing:0px;fill:#ffffff;fill-opacity:1"
         id="path4656"
         inkscape:connector-curvature="0" />
      <path
         d="m 2016.0001,714.86786 q 0,15.41667 -0.4167,25.83334 -0.4167,10.41666 -1.25,19.58333 h -293.75 q 0,64.16667 35.8333,98.75001 35.8334,34.16666 103.3334,34.16666 18.3333,0 36.6666,-1.25 18.3334,-1.66666 35.4167,-4.16666 17.0833,-2.5 32.5,-5.41667 15.8333,-3.33333 29.1667,-7.08333 v 59.58333 q -29.5834,8.33334 -67.0834,13.33334 -37.0833,5.41666 -77.0833,5.41666 -53.75,0 -92.5,-14.58333 -38.75,-14.58333 -63.75,-42.08334 -24.5833,-27.91666 -36.6667,-67.91667 -11.6666,-40.41666 -11.6666,-91.25 0,-44.16667 12.5,-83.33334 12.9166,-39.58333 37.0833,-69.16667 24.5833,-30 60,-47.5 35.4167,-17.5 80.4167,-17.5 43.75,0 77.5,13.75 33.75,13.75 56.6666,39.16667 23.3334,25 35,61.25 12.0834,35.83334 12.0834,80.41667 z m -75.4167,-10.41666 q 1.25,-27.91667 -5.4167,-50.83334 -6.6666,-23.33333 -20.8333,-40 -13.75,-16.66667 -34.5833,-25.83334 -20.8334,-9.58333 -48.3334,-9.58333 -23.75,0 -43.3333,9.16667 -19.5833,9.16666 -33.75,25.83333 -14.1667,16.66667 -22.9167,40 -8.75,23.33334 -10.8333,51.25001 z"
         style="font-style:normal;font-variant:normal;font-weight:normal;font-stretch:normal;font-size:853.33337402px;font-family:Consolas;-inkscape-font-specification:Consolas;letter-spacing:0px;fill:#ffffff;fill-opacity:1"
         id="path4658"
         inkscape:connector-curvature="0" />
      <path
         d="m 2508.9168,946.11787 h -99.5833 l -195,-224.16667 v 224.16667 h -72.5 V 357.36785 h 72.5 v 361.66668 l 187.9166,-191.25001 h 95.8334 l -196.25,192.91668 z"
         style="font-style:normal;font-variant:normal;font-weight:normal;font-stretch:normal;font-size:853.33337402px;font-family:Consolas;-inkscape-font-specification:Consolas;letter-spacing:0px;fill:#ffffff;fill-opacity:1"
         id="path4660"
         inkscape:connector-curvature="0" />
    </g>
    <flowRoot
       xml:space="preserve"
       id="flowRoot7163"
       style="font-style:normal;font-weight:normal;font-size:40px;line-height:1.25;font-family:sans-serif;letter-spacing:0px;word-spacing:0px;fill:#000000;fill-opacity:1;stroke:none"
       transform="matrix(0.26458333,0,0,0.26458333,63.178453,7.7220702)"><flowRegion
         id="flowRegion7165"><rect
           id="rect7167"
           width="2636.415"
           height="476.90567"
           x="-120.90566"
           y="757.46729" /></flowRegion><flowPara
         id="flowPara7169"
         style="font-style:normal;font-variant:normal;font-weight:normal;font-stretch:normal;font-size:240px;font-family:Consolas;-inkscape-font-specification:Consolas;fill:#ffffff;fill-opacity:1">Developer Toolkit</flowPara></flowRoot>  </g>
</svg>
