<svg xmlns="http://www.w3.org/2000/svg" width="707.913" height="193.328" viewBox="0 0 187.302 51.151"><g transform="translate(-15.194 -13.942)"><ellipse cx="28.447" cy="45.689" rx="5.425" ry="8.097" fill="none" stroke="#000" stroke-width="2.377"/><ellipse cx="28.525" cy="45.729" rx="12.142" ry="18.125" fill="none" stroke="#000" stroke-width="2.377"/><path d="M28.761 27.529l11.95-.079M40.789 15.068l10.693-.078M40.787 45.493l.002-30.425M28.918 64.046l10.693-.078M51.48 46.279l.002-31.29M51.48 46.436s-.178 5.127-1.02 7.508c-.86 2.427-1.402 3.844-3.146 6.21-1.057 1.435-2.347 2.66-4.009 3.303-.787.304-3.694.51-3.694.51" fill="none" stroke="#000" stroke-width="2.08" stroke-linecap="square"/><g aria-label="evek" style="line-height:1.25" font-weight="400" font-size="853.333" font-family="Consolas" letter-spacing="0" word-spacing="0"><path d="M89.846 43.894q0 1.212-.033 2.031-.033.82-.098 1.54H66.62q0 5.044 2.817 7.763 2.817 2.686 8.124 2.686 1.441 0 2.883-.098 1.44-.131 2.784-.328 1.343-.196 2.555-.426 1.245-.262 2.293-.556v4.684q-2.326.655-5.274 1.048-2.915.426-6.06.426-4.226 0-7.272-1.147-3.046-1.146-5.012-3.308-1.932-2.195-2.882-5.34-.917-3.177-.917-7.173 0-3.472.982-6.551 1.016-3.112 2.916-5.438 1.932-2.358 4.717-3.734 2.784-1.376 6.322-1.376 3.439 0 6.092 1.08 2.654 1.082 4.455 3.08 1.835 1.965 2.752 4.815.95 2.817.95 6.322zm-5.93-.819q.099-2.194-.425-3.996-.524-1.834-1.638-3.145-1.08-1.31-2.719-2.03-1.638-.754-3.8-.754-1.867 0-3.406.72-1.54.721-2.653 2.032-1.114 1.31-1.802 3.144-.688 1.835-.852 4.03zM95.938 29.187h6.486l8.058 21.75 1.737 5.307 1.801-5.438 7.993-21.62h6.256l-12.906 32.888h-6.551zM163.745 43.894q0 1.212-.033 2.031-.033.82-.098 1.54H140.52q0 5.044 2.817 7.763 2.817 2.686 8.124 2.686 1.441 0 2.883-.098 1.44-.131 2.784-.328 1.343-.196 2.555-.426 1.245-.262 2.293-.556v4.684q-2.326.655-5.274 1.048-2.915.426-6.06.426-4.226 0-7.272-1.147-3.046-1.146-5.012-3.308-1.932-2.195-2.882-5.34-.917-3.177-.917-7.173 0-3.472.982-6.551 1.016-3.112 2.916-5.438 1.932-2.358 4.717-3.734 2.784-1.376 6.322-1.376 3.44 0 6.092 1.08 2.654 1.082 4.455 3.08 1.835 1.965 2.752 4.815.95 2.817.95 6.322zm-5.93-.819q.1-2.194-.425-3.996-.524-1.834-1.638-3.145-1.08-1.31-2.719-2.03-1.638-.754-3.8-.754-1.867 0-3.406.72-1.54.721-2.653 2.032-1.114 1.31-1.802 3.144-.688 1.835-.852 4.03zM202.496 62.074h-7.829l-15.33-17.623v17.623h-5.7V15.79h5.7v28.433l14.773-15.035h7.534l-15.428 15.166z" /></g></g></svg>